<svg xmlns="http://www.w3.org/2000/svg" viewBox="0 0 1200 630">
  <defs>
    <linearGradient id="bg" x1="0" y1="0" x2="1" y2="1">
      <stop offset="0" stop-color="#2a5e47"/>
      <stop offset="0.55" stop-color="#1e4534"/>
      <stop offset="1" stop-color="#0e2018"/>
    </linearGradient>
  </defs>
  <rect width="1200" height="630" fill="url(#bg)"/>
  <circle cx="1080" cy="90" r="220" fill="#d4a84b" opacity="0.10"/>
  <g transform="translate(110,210)">
    <path d="M40 200 V120" stroke="#d4a84b" stroke-width="6" stroke-linecap="round"/>
    <path d="M40 136 q-40 -16 -56 -56 M40 136 q40 -16 56 -56 M40 120 q-28 -24 -32 -64 M40 120 q28 -24 32 -64 M40 112 V48" stroke="#c8d9c2" stroke-width="4" stroke-linecap="round"/>
    <circle cx="-16" cy="80" r="11" fill="#c8d9c2"/><circle cx="96" cy="80" r="11" fill="#c8d9c2"/>
    <circle cx="8" cy="56" r="9" fill="#d4a84b"/><circle cx="72" cy="56" r="9" fill="#d4a84b"/>
    <circle cx="40" cy="44" r="12" fill="#c8d9c2"/>
  </g>
  <text x="240" y="300" font-family="Georgia, serif" font-size="34" fill="#d4a84b" letter-spacing="6">TRUE POTENTIAL TRAINING</text>
  <text x="110" y="420" font-family="Georgia, serif" font-size="84" font-weight="500" fill="#ffffff">Empowering you to</text>
  <text x="110" y="510" font-family="Georgia, serif" font-size="84" font-weight="500" fill="#ffffff">take the <tspan fill="#d4a84b" font-style="italic">next step.</tspan></text>
</svg>
